<?xml version="1.0" encoding="UTF-8" standalone="no"?>
<!-- Created with Inkscape (http://www.inkscape.org/) -->

<svg
   xmlns:dc="http://purl.org/dc/elements/1.1/"
   xmlns:cc="http://creativecommons.org/ns#"
   xmlns:rdf="http://www.w3.org/1999/02/22-rdf-syntax-ns#"
   xmlns:svg="http://www.w3.org/2000/svg"
   xmlns="http://www.w3.org/2000/svg"
   xmlns:sodipodi="http://sodipodi.sourceforge.net/DTD/sodipodi-0.dtd"
   xmlns:inkscape="http://www.inkscape.org/namespaces/inkscape"
   width="1024"
   height="1024"
   viewBox="0 0 270.93333 270.93334"
   version="1.1"
   id="svg979"
   sodipodi:docname="icono1024x1024.svg"
   inkscape:export-filename="/home/foxcarlos/desarrollo/imagenes/aplicaciones/eventos/icono1024x1024_sin_fondo.png"
   inkscape:export-xdpi="96"
   inkscape:export-ydpi="96"
   inkscape:version="0.92.1 r15371">
  <defs
     id="defs973">
    <clipPath
       clipPathUnits="userSpaceOnUse"
       id="clipPath22">
      <path
         d="m 286.668,1847 h 7630 v 1500 h -7630 z"
         id="path20"
         inkscape:connector-curvature="0" />
    </clipPath>
  </defs>
  <sodipodi:namedview
     id="base"
     pagecolor="#ffffff"
     bordercolor="#666666"
     borderopacity="1.0"
     inkscape:pageopacity="0.0"
     inkscape:pageshadow="2"
     inkscape:zoom="0.35"
     inkscape:cx="-220"
     inkscape:cy="560"
     inkscape:document-units="mm"
     inkscape:current-layer="layer1"
     showgrid="false"
     units="px"
     inkscape:window-width="1916"
     inkscape:window-height="1041"
     inkscape:window-x="0"
     inkscape:window-y="18"
     inkscape:window-maximized="0" />
  <metadata
     id="metadata976">
    <rdf:RDF>
      <cc:Work
         rdf:about="">
        <dc:format>image/svg+xml</dc:format>
        <dc:type
           rdf:resource="http://purl.org/dc/dcmitype/StillImage" />
        <dc:title></dc:title>
      </cc:Work>
    </rdf:RDF>
  </metadata>
  <g
     inkscape:label="Capa 1"
     inkscape:groupmode="layer"
     id="layer1"
     transform="translate(0,-26.06665)">
    <g
       id="g1380"
       transform="matrix(0.79963038,0.4567252,-0.39077624,0.9345792,86.013612,-107.96414)">
      <path
         d="m 70.187607,209.04676 -1.534106,-0.24543 1.298669,-0.43275 0.235437,0.67818"
         style="fill:#55c6cf;fill-opacity:1;fill-rule:nonzero;stroke:none;stroke-width:0.09321731"
         id="path102"
         inkscape:connector-curvature="0" />
      <g
         transform="matrix(0.94174657,0,0,-0.92269685,-302.63385,339.50595)"
         id="g118">
        <text
           transform="matrix(0.946719,0.322061,0.322061,-0.946719,357.207,117.921)"
           style="font-variant:normal;font-weight:normal;font-size:14.41680145px;font-family:Aller;-inkscape-font-specification:Aller;writing-mode:lr-tb;fill:#3c3b3d;fill-opacity:1;fill-rule:nonzero;stroke:none"
           id="text124">
          <tspan
             x="0 7.5832372 11.590601"
             y="0"
             sodipodi:role="line"
             id="tspan120">TIC</tspan>
          <tspan
             x="20.500582 29.165079 36.892483"
             y="-0.00059269805"
             sodipodi:role="line"
             id="tspan122">KET</tspan>
        </text>
      </g>
      <path
         d="m 181.09151,264.13887 c 0,-1.41136 1.16776,-2.55651 2.60958,-2.55651 v -2.41479 c -1.44182,0 -2.60958,-1.14406 -2.60958,-2.55689 0,-1.41256 1.16776,-2.55652 2.60958,-2.55652 v -2.41488 c -1.44182,0 -2.60958,-1.14507 -2.60958,-2.55688 0,-1.41256 1.16776,-2.55753 2.60958,-2.55753 v -2.41378 c -1.44182,0 -2.60958,-1.14507 -2.60958,-2.55679 0,-1.41265 1.16776,-2.55772 2.60958,-2.55772 v -2.4147 c -1.44182,0 -2.60958,-1.14414 -2.60958,-2.55679 0,-1.41173 1.16776,-2.55679 2.60958,-2.55679 v -2.4147 c -1.44182,0 -2.60958,-1.14507 -2.60958,-2.55679 0,-1.41265 1.16776,-2.5568 2.60958,-2.5568 v -2.0613 c -7.20719,0 -13.04884,-5.72349 -13.04884,-12.78489 H 37.445904 c 0,7.0614 -5.841654,12.78489 -13.048841,12.78489 v 2.0613 c 1.441814,0 2.60958,1.14415 2.60958,2.5568 0,1.41172 -1.167766,2.55679 -2.60958,2.55679 v 2.4147 c 1.441814,0 2.60958,1.14506 2.60958,2.55679 0,1.41265 -1.167766,2.55679 -2.60958,2.55679 v 2.4147 c 1.441814,0 2.60958,1.14507 2.60958,2.55772 0,1.41172 -1.167766,2.55679 -2.60958,2.55679 v 2.41378 c 1.441814,0 2.60958,1.14497 2.60958,2.55753 0,1.41181 -1.167766,2.55688 -2.60958,2.55688 v 2.41488 c 1.441814,0 2.60958,1.14396 2.60958,2.55652 0,1.41283 -1.167766,2.55689 -2.60958,2.55689 v 2.41479 c 1.441814,0 2.60958,1.14515 2.60958,2.55651 0,1.41293 -1.167766,2.55799 -2.60958,2.55799 v 2.0602 c 7.207187,0 13.048841,5.72469 13.048841,12.78517 H 170.65225 c 0,-7.06048 5.84165,-12.78517 13.04884,-12.78517 v -2.0602 c -1.44182,0 -2.60958,-1.14506 -2.60958,-2.55799"
         style="fill:#f9d820;fill-opacity:1;fill-rule:nonzero;stroke:none;stroke-width:0.09321731"
         id="path138"
         inkscape:connector-curvature="0" />
      <path
         d="m 183.27071,259.13361 c -1.23652,-0.20106 -2.1792,-1.25422 -2.1792,-2.52293 v 0 c 0,1.26871 0.94268,2.32187 2.1792,2.52293 m 0,-15.05758 c -1.23652,-0.20023 -2.1792,-1.25302 -2.1792,-2.52173 v 0 c 0,1.26871 0.94268,2.3215 2.1792,2.52173 m 0,-7.52829 c -1.23652,-0.20114 -2.1792,-1.25394 -2.1792,-2.52265 v 0 c 0,1.26871 0.94268,2.32151 2.1792,2.52265 m 0.388,-14.66903 c -7.18741,-0.0222 -13.00646,-5.73733 -13.00646,-12.78489 0,7.04664 5.81905,12.76274 13.00646,12.78489"
         style="fill:#5c5d5f;fill-opacity:1;fill-rule:nonzero;stroke:none;stroke-width:0.09321731"
         id="path140"
         inkscape:connector-curvature="0" />
      <path
         d="m 170.65225,281.54223 v 0 L 37.445904,209.09382 H 170.65225 v 0 c 0,7.04756 5.81905,12.76274 13.00646,12.78489 0.0141,0 0.0282,0 0.0424,0 v 2.0613 c -1.44182,0 -2.60958,1.14415 -2.60958,2.5568 v 0 0 c 0,1.41172 1.16776,2.55679 2.60958,2.55679 v 2.4147 c -0.17423,0 -0.34563,0.0166 -0.51043,0.0489 -1.19696,0.23252 -2.09915,1.26686 -2.09915,2.50789 v 0 0 c 0,1.26871 0.94268,2.32151 2.1792,2.52265 0.14032,0.0231 0.28346,0.0341 0.43038,0.0341 v 2.4147 c -0.24203,0 -0.47653,0.0323 -0.69878,0.0932 -1.10184,0.29896 -1.9108,1.28901 -1.9108,2.4636 v 0 c 0,9.3e-4 0,9.3e-4 0,9.3e-4 0,1.26871 0.94268,2.3215 2.1792,2.52173 0.14032,0.0231 0.28346,0.0351 0.43038,0.0351 v 2.41378 c -1.44182,0 -2.60958,1.14497 -2.60958,2.55753 v 0 0 c 0,1.41181 1.16776,2.55688 2.60958,2.55688 v 2.41488 c -0.24203,0 -0.47653,0.032 -0.69878,0.0923 -1.10184,0.29988 -1.9108,1.28883 -1.9108,2.46425 v 0 0 c 0,1.26871 0.94268,2.32187 2.1792,2.52293 0.14032,0.0221 0.28346,0.034 0.43038,0.034 v 2.41479 c -1.44182,0 -2.60958,1.14515 -2.60958,2.55651 v 0 0 c 0,1.41293 1.16776,2.55799 2.60958,2.55799 v 2.0602 c -7.20719,0 -13.04884,5.72469 -13.04884,12.78517"
         style="fill:#f8ef34;fill-opacity:1;fill-rule:nonzero;stroke:none;stroke-width:0.09321731"
         id="path142"
         inkscape:connector-curvature="0" />
      <path
         d="m 176.45246,265.01405 h 0.94175 v -40.31466 h -0.94175 c -2.42782,-9.2e-4 -4.61738,-0.96145 -6.20987,-2.51988 -1.59061,-1.56028 -2.57191,-3.70555 -2.57191,-6.08426 v -0.9227 H 40.427473 v 0.9227 c 0,2.37871 -0.9813,4.52398 -2.57191,6.08426 -1.592493,1.55843 -3.782045,2.51896 -6.209877,2.51988 H 30.70394 v 41.23736 h 0.941746 c 2.427823,7.3e-4 4.617384,0.96126 6.209877,2.52043 1.59061,1.55964 2.57191,3.70491 2.57191,6.08335 v 0.92269 H 167.67068 v -0.92269 c 0,-2.37844 0.9813,-4.52371 2.57191,-6.08335 1.59249,-1.55917 3.78205,-2.5197 6.20987,-2.52043 h 0.94175 v -0.9227 h -0.94175 v -0.9227 c -5.89062,7.4e-4 -10.66528,4.67798 -10.66528,10.44918 h 0.94175 v -0.9227 H 41.36922 v 0.9227 h 0.941746 c 0,-5.7712 -4.774655,-10.44844 -10.66528,-10.44918 v 0.9227 h 0.941747 v -39.39196 h -0.941747 v 0.9227 c 5.890625,-9.3e-4 10.66528,-4.67808 10.66528,-10.44954 H 41.36922 v 0.92269 h 125.35971 v -0.92269 h -0.94175 c 0,5.77146 4.77466,10.44861 10.66528,10.44954 v -0.9227 h -0.94174 v 39.39196 h 0.94174 v -0.9227 0.9227"
         style="fill:#e72931;fill-opacity:1;fill-rule:nonzero;stroke:none;stroke-width:0.09321731"
         id="path144"
         inkscape:connector-curvature="0" />
      <path
         d="m 53.031819,274.54053 h 1.883493 v -58.44528 h -1.883493 z"
         style="fill:#e72931;fill-opacity:1;fill-rule:nonzero;stroke:none;stroke-width:0.09321731"
         id="path146"
         inkscape:connector-curvature="0" />
      <path
         d="m 153.18285,274.54053 h 1.88349 v -58.44528 h -1.88349 z"
         style="fill:#e72931;fill-opacity:1;fill-rule:nonzero;stroke:none;stroke-width:0.09321731"
         id="path148"
         inkscape:connector-curvature="0" />
      <g
         transform="matrix(0.94174657,0,0,-0.92269685,-797.79397,726.94352)"
         id="g813">
        <text
           transform="scale(0.99330592,-1.0067392)"
           style="font-variant:normal;font-weight:bold;font-size:20.22065926px;font-family:Aller;-inkscape-font-specification:Aller-Bold;writing-mode:lr-tb;fill:#3c3b3d;fill-opacity:1;fill-rule:nonzero;stroke:none;stroke-width:0.90708959"
           id="text154"
           x="912.39136"
           y="-519.48242">
          <tspan
             x="912.39136"
             y="-519.48242"
             sodipodi:role="line"
             id="tspan152"
             style="stroke-width:0.90708959">EVENTOS</tspan>
        </text>
        <text
           transform="scale(0.98836781,-1.0117691)"
           style="font-variant:normal;font-weight:normal;font-size:14.5865736px;font-family:Aller;-inkscape-font-specification:Aller;writing-mode:lr-tb;fill:#3c3b3d;fill-opacity:1;fill-rule:nonzero;stroke:none;stroke-width:1.01176906"
           id="text158"
           x="946.49982"
           y="-495.2067">
          <tspan
             x="946.49982 954.17236 958.22742 967.24109 976.00763 983.82599"
             y="-495.2067"
             sodipodi:role="line"
             id="tspan156"
             style="stroke-width:1.01176906">TICKET</tspan>
        </text>
      </g>
      <path
         d="m 43.437305,228.50829 1.26759,2.51804 2.836532,0.40321 -2.052066,1.95981 0.484058,2.76717 -2.536114,-1.30654 -2.537066,1.30654 0.485,-2.76717 -2.052066,-1.95981 2.835599,-0.40321 1.268533,-2.51804"
         style="fill:#e72931;fill-opacity:1;fill-rule:nonzero;stroke:none;stroke-width:0.09321731"
         id="path160"
         inkscape:connector-curvature="0" />
      <path
         d="m 43.437305,241.4934 1.26759,2.51804 2.836532,0.40414 -2.052066,1.95981 0.484058,2.76717 -2.536114,-1.30654 -2.537066,1.30654 0.485,-2.76717 -2.052066,-1.95981 2.835599,-0.40414 1.268533,-2.51804"
         style="fill:#e72931;fill-opacity:1;fill-rule:nonzero;stroke:none;stroke-width:0.09321731"
         id="path162"
         inkscape:connector-curvature="0" />
      <path
         d="m 43.437305,254.47943 1.26759,2.51795 2.836532,0.40331 -2.052066,1.95963 0.484058,2.76809 -2.536114,-1.30728 -2.537066,1.30728 0.485,-2.76809 -2.052066,-1.95963 2.835599,-0.40331 1.268533,-2.51795"
         style="fill:#e72931;fill-opacity:1;fill-rule:nonzero;stroke:none;stroke-width:0.09321731"
         id="path164"
         inkscape:connector-curvature="0" />
      <path
         d="m 164.32182,228.50829 1.26854,2.51804 2.8356,0.40321 -2.05207,1.95981 0.48406,2.76717 -2.53613,-1.30654 -2.53706,1.30654 0.485,-2.76717 -2.05207,-1.95981 2.8356,-0.40321 1.26853,-2.51804"
         style="fill:#e72931;fill-opacity:1;fill-rule:nonzero;stroke:none;stroke-width:0.09321731"
         id="path166"
         inkscape:connector-curvature="0" />
      <path
         d="m 164.32182,241.4934 1.26854,2.51804 2.8356,0.40414 -2.05207,1.95981 0.48406,2.76717 -2.53613,-1.30654 -2.53706,1.30654 0.485,-2.76717 -2.05207,-1.95981 2.8356,-0.40414 1.26853,-2.51804"
         style="fill:#e72931;fill-opacity:1;fill-rule:nonzero;stroke:none;stroke-width:0.09321731"
         id="path168"
         inkscape:connector-curvature="0" />
      <path
         d="m 164.32182,254.47943 1.26854,2.51795 2.8356,0.40331 -2.05207,1.95963 0.48406,2.76809 -2.53613,-1.30728 -2.53706,1.30728 0.485,-2.76809 -2.05207,-1.95963 2.8356,-0.40331 1.26853,-2.51795"
         style="fill:#e72931;fill-opacity:1;fill-rule:nonzero;stroke:none;stroke-width:0.09321731"
         id="path170"
         inkscape:connector-curvature="0" />
    </g>
    <path
       inkscape:connector-curvature="0"
       id="path278"
       style="fill:#3c3b3d;fill-opacity:1;fill-rule:nonzero;stroke:none;stroke-width:0.08969206"
       d="m 241.42356,149.47258 c 0,36.3562 -25.73745,65.82776 -57.48536,65.82776 -31.74883,0 -57.48595,-29.47156 -57.48595,-65.82776 0,-36.35619 25.73712,-65.828718 57.48595,-65.828718 31.74791,0 57.48536,29.472528 57.48536,65.828718" />
    <path
       inkscape:connector-curvature="0"
       id="path280"
       style="fill:#4a4b4c;fill-opacity:1;fill-rule:nonzero;stroke:none;stroke-width:0.08969206"
       d="m 183.9382,198.66608 c -6.67429,0 -12.99319,-1.74299 -18.62816,-4.8537 2.93609,-8.48845 10.17026,-14.49295 18.62816,-14.49295 8.4579,0 15.69124,6.0045 18.62816,14.49295 -5.63581,3.11071 -11.95387,4.8537 -18.62816,4.8537 m -24.21618,-8.55564 c -10.48257,-8.20627 -17.62756,-21.59546 -18.62355,-36.94263 0.96581,-0.16317 1.93691,-0.24283 2.90314,-0.24283 6.92205,0 13.65383,4.11273 17.36371,11.47151 4.22802,8.38575 3.30521,18.5577 -1.6433,25.71395 m 48.43153,0 c -3.42809,-4.95736 -4.92421,-11.36305 -4.1137,-17.61901 l 0.005,0.006 c 0.35622,-2.75366 1.15332,-5.47948 2.43487,-8.04023 0.002,-0.002 0.003,-0.007 0.005,-0.009 0.003,-0.008 0.007,-0.0144 0.0101,-0.0221 0.005,-0.01 0.0109,-0.0202 0.0159,-0.0298 v 0 c 3.7097,-7.35782 10.44182,-11.47151 17.36337,-11.47151 0.96724,0 1.93699,0.0797 2.90339,0.24283 -0.99573,15.34717 -8.14107,28.73636 -18.62396,36.94263 M 144.00158,146.02 c -0.9669,0 -1.93666,-0.0797 -2.90314,-0.24283 0.99599,-15.34717 8.14031,-28.73636 18.62287,-36.94263 3.42541,4.95544 4.91817,11.35825 4.10935,17.61326 l 0.006,0.006 c -0.35957,2.77382 -1.17259,5.51884 -2.47123,8.09494 -3.70954,7.35782 -10.44233,11.47151 -17.36371,11.47151 m 79.87251,0 c -6.92155,0 -13.65367,-4.11273 -17.36337,-11.47151 v 0 c -1.82049,-3.6098 -2.68631,-7.55073 -2.68715,-11.44079 -8.4e-4,-5.14452 1.51204,-10.19882 4.32995,-14.27412 10.48289,8.20723 17.62823,21.59642 18.62396,36.94359 -0.96556,0.16221 -1.93699,0.24283 -2.90339,0.24283 M 183.9382,119.62478 c -8.4579,0 -15.69207,-6.00354 -18.62816,-14.49295 5.63497,-3.10975 11.95387,-4.85274 18.62816,-4.85274 6.67429,0 12.99235,1.74299 18.62732,4.85274 -2.93608,8.48941 -10.16942,14.49295 -18.62732,14.49295" />
    <path
       inkscape:connector-curvature="0"
       id="path282"
       style="fill:#41b0c2;fill-opacity:1;fill-rule:nonzero;stroke:none;stroke-width:0.08969206"
       d="m 241.20061,187.33087 c -5.5302,10.96953 -17.77994,14.7281 -27.35929,8.39535 -9.57936,-6.33371 -12.8616,-20.3602 -7.33057,-31.32973 5.53019,-10.96954 17.77993,-14.72811 27.35929,-8.39536 9.57936,6.33371 12.8616,20.3602 7.33057,31.32974 m -57.26241,37.85828 c -11.06123,0 -20.02873,-10.26793 -20.02873,-22.93438 0,-12.66646 8.9675,-22.93534 20.02873,-22.93534 11.06123,0 20.02789,10.26888 20.02789,22.93534 0,12.66645 -8.96666,22.93438 -20.02789,22.93438 m -29.90353,-29.46293 c -9.57961,6.33275 -21.82894,2.57418 -27.35947,-8.39535 -5.53086,-10.96954 -2.24862,-24.99603 7.33099,-31.32974 9.57927,-6.33275 21.82851,-2.57418 27.35913,8.39536 5.53053,10.96953 2.24828,24.99602 -7.33065,31.32973 M 126.6752,111.61334 c 5.53053,-10.96857 17.77986,-14.728103 27.35947,-8.39439 9.57893,6.33371 12.86118,20.3602 7.33065,31.32973 -5.53062,10.96954 -17.77986,14.72811 -27.35913,8.39536 -9.57961,-6.33371 -12.86185,-20.3602 -7.33099,-31.3307 m 57.263,-37.858278 c 11.06123,0 20.02789,10.268881 20.02789,22.935335 0,12.666463 -8.96666,22.934383 -20.02789,22.934383 -11.06123,0 -20.02873,-10.26792 -20.02873,-22.934383 0,-12.666454 8.9675,-22.935335 20.02873,-22.935335 m 29.90312,29.463888 c 9.57935,-6.333713 21.82909,-2.57418 27.35929,8.39439 5.53103,10.9705 2.24879,24.99699 -7.33057,31.3307 -9.57936,6.33275 -21.8291,2.57418 -27.35929,-8.39536 -5.53103,-10.96953 -2.24879,-24.99602 7.33057,-31.32973 M 183.9382,65.20326 c -40.64282,0 -73.59015,37.72871 -73.59015,84.26932 0,46.54062 32.94733,84.26933 73.59015,84.26933 40.64249,0 73.58981,-37.72871 73.58981,-84.26933 0,-46.54061 -32.94732,-84.26932 -73.58981,-84.26932" />
    <path
       inkscape:connector-curvature="0"
       id="path284"
       style="fill:#3c3b3d;fill-opacity:1;fill-rule:nonzero;stroke:none;stroke-width:0.08969206"
       d="m 256.93543,124.81441 c -2.86735,-7.55457 -6.11523,-13.35175 -9.50644,-17.96358 6.41613,12.50425 10.09902,27.06918 10.09902,42.62175 0,8.97892 -1.23126,17.6267 -3.50184,25.74179 1.57407,15.56505 2.47425,34.81956 2.47425,58.82795 h 13.13987 c 0,-50.9768 -4.15561,-86.70529 -12.70486,-109.22791" />
    <path
       inkscape:connector-curvature="0"
       id="path286"
       style="fill:#5cc9d1;fill-opacity:1;fill-rule:nonzero;stroke:none;stroke-width:0.08969206"
       d="m 226.79679,198.55091 -0.005,-0.006 c 5.14799,-0.87726 9.95653,-4.03116 13.20022,-9.09217 -3.24201,5.06101 -8.04887,8.21875 -13.19519,9.09793 m 13.20106,-9.10753 c 0.004,-0.007 0.009,-0.0144 0.0134,-0.0211 -0.004,0.008 -0.008,0.0134 -0.0134,0.0211 m 0.0268,-0.0413 c 0.003,-0.005 0.006,-0.01 0.008,-0.0134 -0.003,0.004 -0.006,0.009 -0.008,0.0134 m -98.94028,-89.00209 -0.005,-0.006 c 0.97705,-0.167 1.96608,-0.25146 2.95947,-0.25146 0.58177,0 1.16454,0.0288 1.7474,0.0873 -0.001,9.6e-4 -0.002,0.003 -0.004,0.004 -0.57859,-0.0576 -1.15675,-0.0864 -1.73399,-0.0864 -0.99499,0 -1.98569,0.0854 -2.96433,0.25242 M 131.9019,89.884469 v 0 0 0" />
    <path
       inkscape:connector-curvature="0"
       id="path288"
       style="fill:#58595b;fill-opacity:1;fill-rule:nonzero;stroke:none;stroke-width:0.08969206"
       d="m 159.72134,108.83473 c -1.38816,-2.00886 -3.09466,-3.78065 -5.09342,-5.20787 1.99876,1.42722 3.70526,3.19805 5.0941,5.20691 l -6.8e-4,9.6e-4 m -5.09476,-5.20883 c -0.0272,-0.0192 -0.0536,-0.0384 -0.0812,-0.0576 0.0269,0.0192 0.0547,0.0393 0.0812,0.0576 m -0.0842,-0.0595 c -0.0137,-0.01 -0.0272,-0.0192 -0.0406,-0.0288 0.0134,0.01 0.0268,0.0192 0.0406,0.0288 m -0.0409,-0.0288 c -0.0131,-0.01 -0.0262,-0.0182 -0.0393,-0.0278 0.0132,0.01 0.0262,0.0182 0.0393,0.0278 m -0.0436,-0.0307 c -0.0131,-0.009 -0.0262,-0.0182 -0.0392,-0.0269 0.0131,0.009 0.0262,0.0182 0.0392,0.0269 m -0.0428,-0.0297 c -0.0125,-0.009 -0.0249,-0.0173 -0.0374,-0.0259 0.0128,0.009 0.0246,0.0173 0.0374,0.0259 m -0.041,-0.0288 c -0.0127,-0.009 -0.0262,-0.0173 -0.0389,-0.0269 0.0124,0.01 0.0262,0.0182 0.0389,0.0269 m -0.0448,-0.0307 c -0.0121,-0.008 -0.0239,-0.0154 -0.0356,-0.024 0.0114,0.008 0.0239,0.0163 0.0356,0.024 m -0.0399,-0.0269 c -0.0125,-0.009 -0.0256,-0.0182 -0.038,-0.0259 0.0127,0.009 0.0251,0.0173 0.038,0.0259 m -0.0462,-0.0317 c -0.0115,-0.008 -0.0232,-0.0154 -0.0347,-0.024 0.0118,0.009 0.0229,0.0163 0.0347,0.024 m -0.0386,-0.0259 c -0.0124,-0.009 -0.0252,-0.0173 -0.0376,-0.025 0.0124,0.008 0.0256,0.0163 0.0376,0.025 m -0.0468,-0.0317 c -0.0121,-0.009 -0.0236,-0.0163 -0.0356,-0.024 0.0114,0.008 0.0239,0.0163 0.0356,0.024 m -0.038,-0.0259 c -0.0131,-0.009 -0.0249,-0.0163 -0.038,-0.025 0.0128,0.009 0.0252,0.0163 0.038,0.025 m -0.0471,-0.0317 c -0.0128,-0.008 -0.0256,-0.0163 -0.038,-0.025 v 0 0 c 0.0127,0.009 0.0249,0.0173 0.038,0.025 m -0.18137,-0.11901 c -2.57476,-1.67005 -5.33809,-2.61449 -8.10855,-2.89091 0.001,-9.6e-4 0.002,-0.003 0.004,-0.004 2.7692,0.27834 5.53154,1.22566 8.10495,2.89475" />
    <path
       inkscape:connector-curvature="0"
       id="path290"
       style="fill:#717374;fill-opacity:1;fill-rule:nonzero;stroke:none;stroke-width:0.08969206"
       d="m 204.04487,172.49718 -0.005,-0.006 c 0.35621,-2.75271 1.15834,-5.47565 2.43989,-8.03448 -1.28155,2.56075 -2.07865,5.28657 -2.43487,8.04023 m 2.4399,-8.04886 c 0.003,-0.008 0.007,-0.0144 0.0101,-0.0221 -0.003,0.008 -0.007,0.0144 -0.0101,0.0221 m 0.026,-0.0518 v 0 c 3.7097,-7.35782 10.44182,-11.47151 17.36337,-11.47151 v 0 c -6.92155,0 -13.65367,4.11369 -17.36337,11.47151 v 0 m 17.36337,-18.3763 c -6.92155,0 -13.65367,-4.11273 -17.36337,-11.47151 3.7097,7.35878 10.44182,11.47151 17.36337,11.47151 v 0 m -60.03757,-19.56645 -0.006,-0.006 c 0.80882,-6.25501 -0.68394,-12.65782 -4.10935,-17.61326 l 6.8e-4,-9.6e-4 c 3.42808,4.95832 4.9242,11.36401 4.11453,17.61997" />
    <path
       inkscape:connector-curvature="0"
       id="path292"
       style="fill:#5bc8d1;fill-opacity:1;fill-rule:nonzero;stroke:none;stroke-width:0.08969206"
       d="m 235.97383,209.05974 -9.17704,-10.50883 c 5.14632,-0.87918 9.95318,-4.03692 13.19519,-9.09793 0.002,-0.003 0.004,-0.007 0.006,-0.01 0.005,-0.008 0.009,-0.0134 0.0134,-0.0211 0.005,-0.007 0.008,-0.0134 0.0134,-0.0202 0.003,-0.005 0.005,-0.01 0.008,-0.0134 0.41657,-0.65458 0.80631,-1.34084 1.16756,-2.0578 5.07172,-10.05869 2.73325,-22.68867 -5.07675,-29.59922 -0.70657,-0.62579 -1.4584,-1.20455 -2.25382,-1.73052 -0.3822,-0.25242 -0.76859,-0.48854 -1.15834,-0.70929 -2.82963,-1.6019 -5.85037,-2.36686 -8.83758,-2.36686 v 0 0 c -6.92155,0 -13.65367,4.11369 -17.36337,11.47151 v 0 c -0.005,0.01 -0.0101,0.0202 -0.0159,0.0298 -0.003,0.008 -0.007,0.0144 -0.0101,0.0221 -0.002,0.003 -0.003,0.006 -0.005,0.009 -1.28155,2.55883 -2.08368,5.28177 -2.43989,8.03448 l -40.2033,-46.03769 c 0.80967,-6.25596 -0.68645,-12.66165 -4.11453,-17.61997 -1.38884,-2.00886 -3.09534,-3.77969 -5.0941,-5.20691 -3.4e-4,0 -6.7e-4,0 -0.001,-9.6e-4 -0.0265,-0.0182 -0.0543,-0.0384 -0.0812,-0.0576 -5.9e-4,0 -0.002,-0.002 -0.003,-0.002 -0.0137,-0.01 -0.0272,-0.0192 -0.0406,-0.0288 h -3.4e-4 c -0.0131,-0.01 -0.0262,-0.0182 -0.0393,-0.0278 -0.001,-9.6e-4 -0.003,-0.002 -0.004,-0.003 -0.0131,-0.009 -0.0262,-0.0182 -0.0392,-0.0269 -10e-4,-9.5e-4 -0.002,-0.002 -0.004,-0.003 -0.0128,-0.009 -0.0246,-0.0173 -0.0374,-0.0259 -0.001,-9.6e-4 -0.002,-9.6e-4 -0.004,-0.003 -0.0127,-0.009 -0.0265,-0.0173 -0.0389,-0.0269 -0.002,-9.6e-4 -0.004,-0.002 -0.006,-0.004 -0.0117,-0.008 -0.0242,-0.0163 -0.0356,-0.024 -10e-4,-9.6e-4 -0.003,-0.002 -0.004,-0.003 -0.0128,-0.009 -0.0252,-0.0173 -0.038,-0.0259 -0.003,-0.002 -0.005,-0.004 -0.008,-0.006 -0.0118,-0.008 -0.0229,-0.0154 -0.0347,-0.024 -10e-4,0 -0.003,-9.6e-4 -0.004,-0.002 -0.0121,-0.009 -0.0252,-0.0173 -0.0376,-0.025 -0.003,-0.003 -0.006,-0.005 -0.009,-0.007 -0.0117,-0.008 -0.0242,-0.0163 -0.0356,-0.024 -3.4e-4,-9.6e-4 -0.002,-9.6e-4 -0.002,-0.002 -0.0127,-0.009 -0.0251,-0.0163 -0.038,-0.025 -0.003,-0.002 -0.006,-0.004 -0.009,-0.007 -0.0131,-0.008 -0.0252,-0.0163 -0.038,-0.025 v 0 c -0.0479,-0.0307 -0.0956,-0.0624 -0.14341,-0.0941 -2.57341,-1.66909 -5.33575,-2.61641 -8.10495,-2.89475 -0.58286,-0.0585 -1.16563,-0.0873 -1.7474,-0.0873 -0.99339,0 -1.98242,0.0845 -2.95947,0.25146 L 131.9019,89.884469 v 0 c 13.31731,-15.249273 31.71506,-24.68121 52.0363,-24.68121 27.07097,0 50.72977,16.74176 63.51007,41.673481 -0.007,-0.009 -0.0126,-0.0173 -0.0193,-0.0259 6.29041,12.26046 9.95402,26.50098 10.09483,41.71091 v 9.6e-4 c 8.4e-4,0.0595 8.4e-4,0.11805 0.002,0.17756 0,0.003 0,0.009 0,0.0115 0,0.025 0,0.0499 0,0.0749 0,0.006 0,0.009 8.3e-4,0.0144 0,0.0566 0,0.11229 8.4e-4,0.16988 0,0.006 0,0.0115 0,0.0173 0,0.0221 0,0.0451 0,0.0672 0,0.006 0,0.0163 0,0.0211 0,0.0557 8.4e-4,0.11038 8.4e-4,0.16604 0,0.006 0,0.0154 0,0.0211 0,0.0211 0,0.0432 0,0.0643 0,0.005 0,0.0163 0,0.0221 0,0.0269 0,0.0547 0,0.0825 v 0 c 0,0.0317 0,0.0634 0,0.095 0,0.006 0,0.0134 0,0.0192 0,0.0317 0,0.0633 0,0.095 v 0.003 c 0,0.0317 -8.4e-4,0.0634 -8.4e-4,0.096 0,0.005 0,0.007 0,0.0125 0,0.0336 0,0.0662 0,0.0998 v 0 c -0.0377,8.82822 -1.26562,17.33299 -3.501,25.32139 0,0.005 8.4e-4,0.009 0.002,0.0134 -3.61583,12.91312 -9.8769,24.4691 -18.05401,33.83193 m -12.09971,-63.03955 v 0 c 3.39791,0 6.84192,-0.99147 9.99592,-3.07615 9.57936,-6.33371 12.8616,-20.3602 7.33057,-31.3307 -3.70971,-7.35781 -10.44099,-11.47054 -17.36337,-11.47054 -3.39791,0 -6.84192,0.99147 -9.99592,3.07615 v 0 c -6.42703,4.24903 -10.0194,11.961 -10.01772,19.88894 8.4e-4,3.89006 0.86666,7.83099 2.68715,11.44079 v 0 c 3.7097,7.35878 10.44182,11.47151 17.36337,11.47151 v 0 M 163.9101,96.690466 v 0 c 0,12.666464 8.9675,22.934384 20.02873,22.934384 11.06123,0 20.02789,-10.26792 20.02789,-22.934384 v 0 0 c 0,-0.23515 -0.003,-0.46934 -0.009,-0.702569 -0.32437,-12.342045 -9.16279,-22.232765 -20.01867,-22.232765 -10.85672,0 -19.69514,9.89072 -20.01951,22.232765 -0.006,0.23323 -0.009,0.46742 -0.009,0.702569 v 0" />
    <path
       inkscape:connector-curvature="0"
       id="path294"
       style="fill:#58595b;fill-opacity:1;fill-rule:nonzero;stroke:none;stroke-width:0.08969206"
       d="m 254.02784,175.22781 c -8.3e-4,-0.005 -0.002,-0.009 -0.002,-0.0134 2.23538,-7.9884 3.46328,-16.49317 3.501,-25.32139 v 0 c -0.0377,8.83206 -1.26227,17.34451 -3.49933,25.33483 m 3.49933,-25.33483 v 0 c 0,-0.0336 0,-0.0662 0,-0.0998 v 0 c 0,0.0345 0,0.0653 0,0.0998 m 0,-0.1123 v 0 c 0,-0.0326 8.4e-4,-0.0643 8.4e-4,-0.096 v 0 c 0,0.0317 -8.4e-4,0.0643 -8.4e-4,0.096 m 8.4e-4,-0.0989 v 0 c 0,-0.0317 0,-0.0634 0,-0.095 v 0 c 0,0.0307 0,0.0643 0,0.095 m 0,-0.11422 v 0 c 0,-0.0317 0,-0.0633 0,-0.095 v 0 c 0,0.0307 0,0.0634 0,0.095 m 0,-0.095 c 0,-0.0278 0,-0.0557 0,-0.0825 0,0.0278 0,0.0538 0,0.0825 m 0,-0.10461 c 0,-0.0211 0,-0.0432 0,-0.0643 0,0.023 0,0.0413 0,0.0643 m 0,-0.0854 c 0,-0.0557 -8.4e-4,-0.11037 -8.4e-4,-0.16604 0,0.0576 8.4e-4,0.10846 8.4e-4,0.16604 m -8.4e-4,-0.18716 c 0,-0.0221 0,-0.0451 0,-0.0672 0,0.023 0,0.0442 0,0.0672 m 0,-0.0845 c -8.4e-4,-0.0576 -8.4e-4,-0.11325 -8.4e-4,-0.16988 0,0.0566 0,0.11325 8.4e-4,0.16988 m -0.002,-0.18428 c 0,-0.0249 0,-0.0499 0,-0.0749 0,0.0259 0,0.049 0,0.0749 m 0,-0.0864 c -8.4e-4,-0.0595 -8.4e-4,-0.11806 -0.002,-0.17756 8.4e-4,0.0595 8.4e-4,0.11805 0.002,0.17756 m -0.002,-0.17852 c -0.14081,-15.20993 -3.80442,-29.45045 -10.09483,-41.71091 0.007,0.009 0.0126,0.0173 0.0193,0.0259 6.28203,12.2547 9.93474,26.48659 10.07555,41.685" />
    <path
       inkscape:connector-curvature="0"
       id="path296"
       style="fill:#ffffff;fill-opacity:1;fill-rule:nonzero;stroke:none;stroke-width:0.08969206"
       d="m 188.04436,136.30703 c 0,2.59626 -1.83893,4.70205 -4.10616,4.70205 -2.26807,0 -4.10616,-2.10579 -4.10616,-4.70205 0,-2.59721 1.83809,-4.70205 4.10616,-4.70205 2.26723,0 4.10616,2.10484 4.10616,4.70205" />
    <path
       inkscape:connector-curvature="0"
       id="path298"
       style="fill:#ffffff;fill-opacity:1;fill-rule:nonzero;stroke:none;stroke-width:0.08969206"
       d="m 176.03433,138.81787 c 1.96381,1.2986 2.63686,4.17416 1.50282,6.42296 -1.13403,2.24881 -3.64516,3.01953 -5.60898,1.72092 -1.96381,-1.2986 -2.63686,-4.17416 -1.50282,-6.42297 1.13403,-2.2488 3.64517,-3.01952 5.60898,-1.72091" />
    <path
       inkscape:connector-curvature="0"
       id="path300"
       style="fill:#ffffff;fill-opacity:1;fill-rule:nonzero;stroke:none;stroke-width:0.08969206"
       d="m 171.92817,151.98342 c 1.96382,-1.29861 4.47495,-0.52789 5.60898,1.72092 1.13404,2.2488 0.46099,5.12436 -1.50282,6.42296 -1.96381,1.29861 -4.47495,0.52789 -5.60898,-1.72091 -1.13404,-2.24881 -0.46099,-5.12437 1.50282,-6.42297" />
    <path
       inkscape:connector-curvature="0"
       id="path302"
       style="fill:#ffffff;fill-opacity:1;fill-rule:nonzero;stroke:none;stroke-width:0.08969206"
       d="m 179.83204,162.63814 c 0,-2.59722 1.83809,-4.70205 4.10616,-4.70205 2.26723,0 4.10616,2.10483 4.10616,4.70205 0,2.59721 -1.83893,4.70205 -4.10616,4.70205 -2.26807,0 -4.10616,-2.10484 -4.10616,-4.70205" />
    <path
       inkscape:connector-curvature="0"
       id="path304"
       style="fill:#ffffff;fill-opacity:1;fill-rule:nonzero;stroke:none;stroke-width:0.08969206"
       d="m 191.84207,160.1273 c -1.96465,-1.2986 -2.63686,-4.17416 -1.50366,-6.42296 1.13403,-2.24881 3.64516,-3.01953 5.60982,-1.72092 1.96381,1.2986 2.63686,4.17416 1.50282,6.42297 -1.13403,2.2488 -3.64517,3.01952 -5.60898,1.72091" />
    <path
       inkscape:connector-curvature="0"
       id="path306"
       style="fill:#ffffff;fill-opacity:1;fill-rule:nonzero;stroke:none;stroke-width:0.08969206"
       d="m 195.94823,146.96175 c -1.96466,1.29861 -4.47579,0.52789 -5.60982,-1.72092 -1.1332,-2.2488 -0.46099,-5.12436 1.50366,-6.42296 1.96381,-1.29861 4.47495,-0.52789 5.60898,1.72091 1.13404,2.24881 0.46099,5.12437 -1.50282,6.42297" />
    <path
       inkscape:connector-curvature="0"
       id="path308"
       style="fill:#ffffff;fill-opacity:1;fill-rule:nonzero;stroke:none;stroke-width:0.08969206"
       d="m 185.99086,153.54501 c -1.96381,1.29765 -4.47495,0.52789 -5.60898,-1.72188 -1.13404,-2.24881 -0.46099,-5.12436 1.50282,-6.42297 1.96382,-1.29861 4.47579,-0.52789 5.60898,1.72092 1.13404,2.24977 0.46099,5.12532 -1.50282,6.42393" />
    <g
       id="g730"
       transform="matrix(0.83816228,0,0,-0.9597982,-646.33627,804.2706)">
      <path
         d="m 886.0901,728.33568 c 0,-9.945 -8.061,-18.006 -18.006,-18.006 -9.945,0 -18.006,8.061 -18.006,18.006 0,9.944 8.061,18.006 18.006,18.006 9.945,0 18.006,-8.062 18.006,-18.006"
         style="fill:#f79f15;fill-opacity:1;fill-rule:nonzero;stroke:none;stroke-width:0.1"
         id="path310"
         inkscape:connector-curvature="0" />
      <path
         d="m 911.4351,746.34168 c 0,-9.944 -8.062,-18.006 -18.006,-18.006 -9.945,0 -18.006,8.062 -18.006,18.006 0,9.945 8.061,18.006 18.006,18.006 9.944,0 18.006,-8.061 18.006,-18.006"
         style="fill:#f9d820;fill-opacity:1;fill-rule:nonzero;stroke:none;stroke-width:0.1"
         id="path312"
         inkscape:connector-curvature="0" />
      <path
         d="m 943.6181,757.11368 c 0,-9.945 -8.061,-18.007 -18.006,-18.007 -9.944,0 -18.006,8.062 -18.006,18.007 0,9.944 8.062,18.006 18.006,18.006 9.945,0 18.006,-8.062 18.006,-18.006"
         style="fill:#f79f15;fill-opacity:1;fill-rule:nonzero;stroke:none;stroke-width:0.1"
         id="path314"
         inkscape:connector-curvature="0" />
      <path
         d="m 970.9331,746.34168 c 0,-9.944 -8.061,-18.006 -18.006,-18.006 -9.944,0 -18.006,8.062 -18.006,18.006 0,9.945 8.062,18.006 18.006,18.006 9.945,0 18.006,-8.061 18.006,-18.006"
         style="fill:#f9d820;fill-opacity:1;fill-rule:nonzero;stroke:none;stroke-width:0.1"
         id="path316"
         inkscape:connector-curvature="0" />
      <path
         d="m 934.9211,734.84568 c 0,-9.945 -8.062,-18.006 -18.006,-18.006 -9.945,0 -18.007,8.061 -18.007,18.006 0,9.945 8.062,18.006 18.007,18.006 9.944,0 18.006,-8.061 18.006,-18.006"
         style="fill:#f79f15;fill-opacity:1;fill-rule:nonzero;stroke:none;stroke-width:0.1"
         id="path318"
         inkscape:connector-curvature="0" />
      <path
         d="m 914.1051,724.92168 c 0,-9.944 -8.062,-18.006 -18.007,-18.006 -9.944,0 -18.006,8.062 -18.006,18.006 0,9.945 8.062,18.006 18.006,18.006 9.945,0 18.007,-8.061 18.007,-18.006"
         style="fill:#f9d820;fill-opacity:1;fill-rule:nonzero;stroke:none;stroke-width:0.1"
         id="path320"
         inkscape:connector-curvature="0" />
      <path
         d="m 952.9271,727.70668 c 0,-9.944 -8.062,-18.006 -18.006,-18.006 -9.945,0 -18.006,8.062 -18.006,18.006 0,9.945 8.061,18.007 18.006,18.007 9.944,0 18.006,-8.062 18.006,-18.007"
         style="fill:#f9d820;fill-opacity:1;fill-rule:nonzero;stroke:none;stroke-width:0.1"
         id="path322"
         inkscape:connector-curvature="0" />
      <path
         d="m 979.3351,724.92168 c 0,-9.944 -8.061,-18.006 -18.006,-18.006 -9.944,0 -18.006,8.062 -18.006,18.006 0,9.945 8.062,18.006 18.006,18.006 9.945,0 18.006,-8.061 18.006,-18.006"
         style="fill:#f79f15;fill-opacity:1;fill-rule:nonzero;stroke:none;stroke-width:0.1"
         id="path324"
         inkscape:connector-curvature="0" />
      <path
         d="m 997.3421,727.70668 c 0,-9.944 -8.062,-18.006 -18.007,-18.006 -9.944,0 -18.006,8.062 -18.006,18.006 0,9.945 8.062,18.007 18.006,18.007 9.945,0 18.007,-8.062 18.007,-18.007"
         style="fill:#f9d820;fill-opacity:1;fill-rule:nonzero;stroke:none;stroke-width:0.1"
         id="path326"
         inkscape:connector-curvature="0" />
      <path
         d="m 976.5751,591.74168 h -105.731 l -19.758,129.726 h 145.248 l -19.759,-129.726"
         style="fill:#e72931;fill-opacity:1;fill-rule:nonzero;stroke:none;stroke-width:0.1"
         id="path328"
         inkscape:connector-curvature="0" />
      <path
         d="m 966.6851,591.74168 h -85.95 l -16.062,129.726 h 118.074 l -16.062,-129.726"
         style="fill:#ffffff;fill-opacity:1;fill-rule:nonzero;stroke:none;stroke-width:0.1"
         id="path330"
         inkscape:connector-curvature="0" />
      <path
         d="m 955.4731,591.74168 h -63.526 l -11.872,129.726 h 87.269 l -11.871,-129.726"
         style="fill:#e72931;fill-opacity:1;fill-rule:nonzero;stroke:none;stroke-width:0.1"
         id="path332"
         inkscape:connector-curvature="0" />
      <path
         d="m 943.2711,591.74168 h -39.122 l -7.311,129.726 h 53.744 l -7.311,-129.726"
         style="fill:#ffffff;fill-opacity:1;fill-rule:nonzero;stroke:none;stroke-width:0.1"
         id="path334"
         inkscape:connector-curvature="0" />
      <path
         d="m 929.7891,591.74168 h -12.159 l -2.272,129.726 h 16.703 l -2.272,-129.726"
         style="fill:#e72931;fill-opacity:1;fill-rule:nonzero;stroke:none;stroke-width:0.1"
         id="path336"
         inkscape:connector-curvature="0" />
      <path
         d="m 869.3841,601.33368 1.461,-9.592 h 105.73 l 1.461,9.592 h -108.652"
         style="fill:#41b0c2;fill-opacity:1;fill-rule:nonzero;stroke:none;stroke-width:0.1"
         id="path338"
         inkscape:connector-curvature="0" />
      <path
         d="m 994.9821,712.59168 1.352,8.876 h -145.248 l 1.352,-8.876 h 142.544"
         style="fill:#e72931;fill-opacity:1;fill-rule:nonzero;stroke:none;stroke-width:0.1"
         id="path340"
         inkscape:connector-curvature="0" />
      <path
         d="m 978.0361,601.33368 h -10.164 l 13.776,111.258 h 13.334 l -16.946,-111.258"
         style="fill:#f03b45;fill-opacity:1;fill-rule:nonzero;stroke:none;stroke-width:0.1"
         id="path342"
         inkscape:connector-curvature="0" />
      <path
         d="m 967.8721,601.33368 h -11.522 l 10.182,111.258 h 15.116 l -13.776,-111.258"
         style="fill:#ffffff;fill-opacity:1;fill-rule:nonzero;stroke:none;stroke-width:0.1"
         id="path344"
         inkscape:connector-curvature="0" />
      <path
         d="m 956.3501,601.33368 h -12.539 l 6.271,111.258 h 16.45 l -10.182,-111.258"
         style="fill:#f03b45;fill-opacity:1;fill-rule:nonzero;stroke:none;stroke-width:0.1"
         id="path346"
         inkscape:connector-curvature="0" />
      <path
         d="m 943.8111,601.33368 h -13.854 l 1.949,111.258 h 18.176 l -6.271,-111.258"
         style="fill:#ffffff;fill-opacity:1;fill-rule:nonzero;stroke:none;stroke-width:0.1"
         id="path348"
         inkscape:connector-curvature="0" />
      <path
         d="m 996.3341,721.46768 v 0 h -0.103 v 0 h 0.103 v 0"
         style="fill:#58595b;fill-opacity:1;fill-rule:nonzero;stroke:none;stroke-width:0.1"
         id="path350"
         inkscape:connector-curvature="0" />
      <path
         d="m 943.6541,721.46768 h -19.944 v 0 h 19.944 v 0"
         style="fill:#f8ed31;fill-opacity:1;fill-rule:nonzero;stroke:none;stroke-width:0.1"
         id="path352"
         inkscape:connector-curvature="0" />
      <path
         d="m 962.4391,721.46768 h -18.785 v 0 h 18.785 v 0"
         style="fill:#f8cd21;fill-opacity:1;fill-rule:nonzero;stroke:none;stroke-width:0.1"
         id="path354"
         inkscape:connector-curvature="0" />
      <path
         d="m 996.2311,721.46768 h -33.792 v 0 h 33.792 v 0"
         style="fill:#f8ed31;fill-opacity:1;fill-rule:nonzero;stroke:none;stroke-width:0.1"
         id="path356"
         inkscape:connector-curvature="0" />
      <path
         d="m 929.9571,601.33368 h -6.247 v 111.258 h 8.196 l -1.949,-111.258"
         style="fill:#f03b45;fill-opacity:1;fill-rule:nonzero;stroke:none;stroke-width:0.1"
         id="path358"
         inkscape:connector-curvature="0" />
      <path
         d="m 976.5751,591.74168 h -52.865 v 9.592 h 54.326 l -1.461,-9.592"
         style="fill:#5bc8d1;fill-opacity:1;fill-rule:nonzero;stroke:none;stroke-width:0.1"
         id="path360"
         inkscape:connector-curvature="0" />
      <path
         d="m 994.9821,712.59168 v 0 h -71.272 v 8.876 h 8.351 18.521 16.762 15.403 13.587 l -1.352,-8.876"
         style="fill:#f03b45;fill-opacity:1;fill-rule:nonzero;stroke:none;stroke-width:0.1"
         id="path362"
         inkscape:connector-curvature="0" />
    </g>
    <g
       id="g1427"
       transform="translate(13.229169,-26.458341)">
      <path
         d="M 228.24107,270.13752 242.742,254.35706 h -58.87896 v 29.4125 H 242.742 l -14.50093,-13.63204"
         style="fill:#9e1b22;fill-opacity:1;fill-rule:evenodd;stroke:none;stroke-width:0.03527778"
         id="path2010"
         inkscape:connector-curvature="0" />
      <path
         d="M 16.687294,270.11282 2.1865757,254.33343 H 61.065326 v 29.41214 H 2.1865757 L 16.687294,270.11282"
         style="fill:#9e1b22;fill-opacity:1;fill-rule:evenodd;stroke:none;stroke-width:0.03527778"
         id="path2014"
         inkscape:connector-curvature="0" />
      <path
         d="M 41.468875,263.38535 H 203.41116 v 29.41214 H 41.468875 v -29.41214"
         style="fill:#c2212b;fill-opacity:1;fill-rule:evenodd;stroke:none;stroke-width:0.03527778"
         id="path2018"
         inkscape:connector-curvature="0" />
    </g>
  </g>
</svg>
